<svg xmlns="http://www.w3.org/2000/svg" width="105" height="120.388"><defs><linearGradient id="linear-gradient" x1=".5" x2=".5" y2="1" gradientUnits="objectBoundingBox"><stop offset="0" stop-color="#f9ffbf"/><stop offset="1" stop-color="#9a6907"/></linearGradient></defs><g id="Groupe_1" data-name="Groupe 1" transform="translate(.5 .5)"><path id="Tracé_2" data-name="Tracé 2" d="M170.987 91.39V75.247a.777.777 0 01.846-.68h5.1a.777.777 0 01.846.68v9.4a6.831 6.831 0 01-.461 2.438 7.838 7.838 0 01-1.341 2.222 9.578 9.578 0 01-1.672 1.531 10.926 10.926 0 01-2.008 1.122 1 1 0 01-.468.111.776.776 0 01-.846-.68m1.692-15.468v14.234l.509-.337a7.383 7.383 0 001.4-1.277 6.444 6.444 0 001.121-1.858 5.666 5.666 0 00.385-2.04v-8.723h-3.412zm-49.764-.675V91.39a.617.617 0 01-.1.315.951.951 0 01-1.135.287 11.178 11.178 0 01-2.043-1.128l-.041-.028a9.36 9.36 0 01-1.671-1.531 7.65 7.65 0 01-1.341-2.222 6.853 6.853 0 01-.461-2.438v-9.4a.776.776 0 01.846-.68h5.1a.781.781 0 01.849.682zm14.514 52.352h19.03a35.671 35.671 0 01-1.932-3.394 20.88 20.88 0 01-1.423-3.643 14.875 14.875 0 01-.558-3.543 12.682 12.682 0 01.42-3.632.761.761 0 01.592-.514 27.015 27.015 0 006.533-2.416 23.207 23.207 0 005.385-3.881 19.338 19.338 0 003.693-4.9l.015-.039a15.991 15.991 0 001.712-5.556.732.732 0 01.592-.6 15.06 15.06 0 003.789-1.492 13.132 13.132 0 003.067-2.355 10.626 10.626 0 002.1-3.157 9.05 9.05 0 00.715-3.51V71.527h-9.319a.777.777 0 01-.846-.68v-.63h-27.574a.694.694 0 110-1.355h27.571v-3.67h-48.073v5.655a.781.781 0 01-.846.68h-9.326v13.439a8.99 8.99 0 00.722 3.516 10.542 10.542 0 002.1 3.151 13.141 13.141 0 003.067 2.361 14.947 14.947 0 003.79 1.493.736.736 0 01.592.586 16 16 0 001.712 5.567 19.025 19.025 0 003.707 4.942 23.457 23.457 0 005.391 3.881 27.238 27.238 0 006.534 2.416.76.76 0 01.6.508 12.125 12.125 0 01.392 3.532 14.79 14.79 0 01-.557 3.51 22.785 22.785 0 01-1.41 3.671 36.586 36.586 0 01-1.957 3.5zm28.108 1.36h-37.165v1.819h19.951a.7.7 0 110 1.36h-19.951v2.961h37.165v-6.14zm3.927 7.5h-45.02v3.472h45.02zm-18.686-37.651h2.489v-16.3h-1.981a6.383 6.383 0 01-.914 1.233 8.868 8.868 0 01-1.768 1.426 17.917 17.917 0 01-1.946 1.067 11.762 11.762 0 01-1.286.5v1.62a16.2 16.2 0 001.637-.658 13.486 13.486 0 002.3-1.388.941.941 0 01.619-.216.781.781 0 01.846.68zm3.335 1.36h-4.181a.78.78 0 01-.846-.68V88.217c-.392.227-.8.443-1.224.647a18.116 18.116 0 01-3.067 1.111.89.89 0 01-1.066-.431.6.6 0 01-.048-.21v-3.069a.73.73 0 01.646-.658 10 10 0 001.492-.553 15.416 15.416 0 001.746-.957 7.334 7.334 0 001.458-1.177 4.735 4.735 0 00.9-1.321.854.854 0 01.791-.448l3.4-.005a.781.781 0 01.846.68v17.663a.784.784 0 01-.846.68zm-10.185-4.146v-1.631H141.3a.776.776 0 01-.846-.68v-2.1h-2.022v2.1a.78.78 0 01-.846.68h-2.62v1.631h2.62a.78.78 0 01.846.68v2.106h2.022V96.7a.776.776 0 01.846-.68zm1.692-2.311V96.7a.78.78 0 01-.846.68h-2.62v2.106a.78.78 0 01-.846.68h-3.714a.78.78 0 01-.846-.68v-2.103h-2.62a.78.78 0 01-.846-.68v-2.991a.78.78 0 01.846-.68h2.62v-2.1a.776.776 0 01.846-.68h3.71a.776.776 0 01.846.68v2.1h2.621a.78.78 0 01.849.68zm-8.06-24.849a.694.694 0 110 1.355h-5.763a.694.694 0 110-1.355zm18.466 61.916a.7.7 0 110 1.36h-3.308a.7.7 0 110-1.36zM146.1 26.682a.866.866 0 011.692 0v10.166a.866.866 0 01-1.692 0zm51.1 21.483a.96.96 0 011.142.271.618.618 0 01-.337.923l-11.664 5.086a.954.954 0 01-1.142-.276.614.614 0 01.337-.917zM95.9 49.359a.618.618 0 01-.336-.923.96.96 0 011.142-.271l11.664 5.086a.617.617 0 01.336.917.954.954 0 01-1.142.276zm75.907-12.322a.977.977 0 011.162-.226.611.611 0 01.282.934l-4.113 5.374a.975.975 0 01-1.163.227.605.605 0 01-.275-.934zm26.3 33.125a.7.7 0 110 1.36h-8.218a.7.7 0 110-1.36zM95.8 71.521a.7.7 0 110-1.36h8.219a.7.7 0 110 1.36zm24.855-33.778a.611.611 0 01.282-.934.977.977 0 011.162.226l4.101 5.375a.613.613 0 01-.275.934.974.974 0 01-1.162-.227zm25.445 8.194a.866.866 0 011.692 0v5.733a.866.866 0 01-1.692 0zM173.366 57.8a.966.966 0 011.148.254.615.615 0 01-.309.923l-6.183 2.864a.956.956 0 01-1.149-.249.614.614 0 01.316-.923zM119.7 58.978a.615.615 0 01-.309-.923.965.965 0 011.148-.254l6.183 2.869a.615.615 0 01.309.923.956.956 0 01-1.148.249zm40.074-7.342a.972.972 0 011.149-.248.608.608 0 01.309.923l-2.173 3.035a.972.972 0 01-1.148.249.608.608 0 01-.31-.923zm-27.1.68a.614.614 0 01.3-.929.981.981 0 011.156.248l2.173 3.03a.613.613 0 01-.3.929.964.964 0 01-1.155-.249zM114.09 142.9a.7.7 0 110-1.36h50.866a.7.7 0 110 1.36zm29.786 2.488a.7.7 0 110-1.36h35.192a.7.7 0 110 1.36zm38.8 0a.7.7 0 110-1.36h4.4a.7.7 0 110 1.36zm-70.583-.077a.7.7 0 110-1.36h16.678a.7.7 0 110 1.36zm24.747-23.671a.8.8 0 01-.839.6.78.78 0 01-.846-.68.553.553 0 01.041-.21 13.512 13.512 0 00.509-3.184 11.3 11.3 0 00-.268-2.83 28.83 28.83 0 01-6.506-2.46 25.067 25.067 0 01-5.763-4.152 20.513 20.513 0 01-3.968-5.29 17.145 17.145 0 01-1.83-5.965.733.733 0 01.763-.73.81.81 0 01.915.608 16 16 0 001.712 5.567 18.934 18.934 0 003.707 4.942 23.432 23.432 0 005.392 3.881 27.006 27.006 0 006.533 2.416.766.766 0 01.6.514 12.091 12.091 0 01.392 3.527 14.53 14.53 0 01-.544 3.446zm-15.618-31.483V75.922h-3.411v8.723a5.636 5.636 0 00.378 2.04 6.436 6.436 0 001.121 1.858 7.647 7.647 0 001.4 1.277z" transform="translate(-94.95 -26.002)" stroke="#000" stroke-width="1" fill-rule="evenodd" fill="url(#linear-gradient)"/></g></svg>