<svg xmlns="http://www.w3.org/2000/svg" width="128.41" height="90.937"><path id="iconfinder_cloud-storage-online-data_2203509" d="M17.829 51.24c.016 0 .04.009.056.009a44.85 44.85 0 012.376-24.838C25.181 13.86 35.253 4.482 46.867 2.739 63.015.313 77.293 11.179 82.983 27.33a14.9 14.9 0 016.188-1.355C99.019 25.976 107 35.4 107 47.024a24.205 24.205 0 01-.514 4.812c4.278-1.184 8.965-1.051 14.647 4.367a22.738 22.738 0 017.271 16.322c-.112 11.519-8.05 20.812-17.833 20.812H18.688c-8.339 0-16.2-6.262-18.154-15.829C-2.3 63.621 6.537 51.24 17.829 51.24z" transform="translate(0 -2.4)" fill="#fff"/></svg>