<svg xmlns="http://www.w3.org/2000/svg" width="117.694" height="80.022"><path id="iconfinder_cloud-storage-online-data_2203509" d="M101.353 45.378c-.015 0-.037.008-.051.008a37.993 37.993 0 00-2.177-21.857C94.615 12.484 85.383 4.232 74.738 2.7c-14.8-2.134-27.887 7.427-33.1 21.64a14.136 14.136 0 00-5.672-1.192c-9.026 0-16.345 8.294-16.345 18.522a20.483 20.483 0 00.469 4.23c-3.921-1.042-8.217-.925-13.425 3.843A19.663 19.663 0 000 64.108c.1 10.137 7.379 18.314 16.346 18.314h84.22a17.27 17.27 0 0016.639-13.929c2.595-12.22-5.505-23.115-15.852-23.115z" transform="translate(0 -2.4)" fill="#fff"/></svg>