<svg xmlns="http://www.w3.org/2000/svg" width="65.81" height="27.341"><g id="Page-1" transform="translate(-3 -10)"><g id="icon-43-wind" transform="translate(3 10)"><path id="wind" d="M3 18.413C3 13.767 7.376 10 12.75 10s9.75 3.763 9.75 8.413h-2.438c0-3.485-3.282-6.309-7.312-6.309s-7.312 2.832-7.312 6.309 3.274 6.309 7.331 6.309H68.81v2.1H12.746C7.363 26.825 3 23.049 3 18.413zm21.937-2.1c0-3.485 3.282-6.309 7.312-6.309s7.312 2.823 7.312 6.291v.018h-2.438c0-2.323-2.164-4.206-4.875-4.206-2.692 0-4.875 1.867-4.875 4.206 0 2.323 2.187 4.206 4.889 4.206H61.5v2.1H32.247c-4.038 0-7.311-2.832-7.311-6.309zm-9.75 16.825c0 2.323 2.164 4.206 4.875 4.206 2.692 0 4.875-1.882 4.875-4.194v-.012H22.5a2.283 2.283 0 01-2.437 2.1 2.283 2.283 0 01-2.437-2.1 2.3 2.3 0 012.456-2.1h34.103v-2.1H20.047c-2.684 0-4.86 1.867-4.86 4.206z" transform="translate(-3 -10)" fill="#fff" fill-rule="evenodd"/></g></g></svg>