<svg xmlns="http://www.w3.org/2000/svg" width="53.61" height="27.341"><g id="Page-1" transform="translate(-3 -10)"><g id="icon-43-wind" transform="translate(3 10)"><path id="wind" d="M56.61 18.413A8.193 8.193 0 0048.668 10a8.186 8.186 0 00-7.942 8.413h1.986a5.967 5.967 0 1111.913 0 6.143 6.143 0 01-5.972 6.309H3v2.1h45.671a8.192 8.192 0 007.939-8.413zm-17.87-2.1A6.145 6.145 0 0032.784 10a6.135 6.135 0 00-5.957 6.291v.018h1.986a3.978 3.978 0 117.942 0 4.1 4.1 0 01-3.983 4.206H8.957v2.1h23.828a6.145 6.145 0 005.956-6.309zm7.942 16.825a4.084 4.084 0 01-3.971 4.206 4.09 4.09 0 01-3.971-4.194v-.012h1.986a2.042 2.042 0 001.986 2.1 2.042 2.042 0 001.986-2.1 2.051 2.051 0 00-2-2.1H14.913v-2.1h27.81a4.078 4.078 0 013.959 4.206z" transform="translate(-3 -10)" fill="#fff" fill-rule="evenodd"/></g></g></svg>