<?xml version="1.0" ?><svg id="Layer_1_1_" style="enable-background:new 0 0 16 16;" version="1.1" viewBox="0 0 16 16" xml:space="preserve" xmlns="http://www.w3.org/2000/svg" xmlns:xlink="http://www.w3.org/1999/xlink"><path d="M13.778,7.556c-0.002,0-0.005,0.001-0.007,0.001c0.171-0.806,0.137-1.686-0.296-2.622C12.862,3.61,11.607,2.62,10.16,2.436  C8.148,2.18,6.369,3.327,5.66,5.032C5.421,4.94,5.161,4.889,4.889,4.889c-1.227,0-2.222,0.995-2.222,2.222  c0,0.176,0.025,0.344,0.064,0.508C2.198,7.494,1.614,7.508,0.906,8.08C0.38,8.506-0.007,9.126,0,9.803  C0.014,11.019,1.003,12,2.222,12h11.449c1.039,0,2.019-0.661,2.262-1.671C16.286,8.863,15.185,7.556,13.778,7.556z"/></svg>