<?xml version="1.0" ?><!DOCTYPE svg  PUBLIC '-//W3C//DTD SVG 1.1//EN'  'http://www.w3.org/Graphics/SVG/1.1/DTD/svg11.dtd'><svg enable-background="new 0 0 64 64" height="64px" id="Icons" version="1.1" viewBox="0 0 64 64" width="64px" xml:space="preserve" xmlns="http://www.w3.org/2000/svg" xmlns:xlink="http://www.w3.org/1999/xlink"><g id="awards"><g><g><path d="M38.086,38.872c0.888,0.371,1.721-0.085,1.807-0.29c0.085-0.206-0.177-1.117-1.066-1.487     c-1.162-0.485-2.49,0.004-2.49,0.004S36.923,38.387,38.086,38.872z" fill="#37474F"/><path d="M40.777,45.873c0.186-0.122,0.48-1.024-0.048-1.829c-0.691-1.055-2.065-1.393-2.065-1.393     s-0.237,1.395,0.454,2.448C39.645,45.905,40.59,45.995,40.777,45.873z" fill="#37474F"/><path d="M41.602,42.361c-0.188-2.055-0.99-3.973-2.233-5.54c0.037,0.021,0.07,0.035,0.096,0.039     c0.22,0.028,1.034-0.459,1.161-1.415c0.168-1.248-0.648-2.404-0.648-2.404s-1.092,0.899-1.26,2.148     c-0.06,0.446,0.053,0.829,0.211,1.118c-0.533-0.59-1.134-1.119-1.79-1.576c0.2,0.063,0.369,0.071,0.435,0.036     c0.165-0.086,0.483-0.809,0.112-1.521c-0.486-0.931-1.598-1.324-1.598-1.324s-0.312,1.138,0.174,2.067     c0.067,0.129,0.15,0.233,0.238,0.327c-0.231-0.138-0.468-0.267-0.71-0.386c-0.079-0.285-0.396-0.78-1.012-0.954     c-1.011-0.284-2.061,0.254-2.061,0.254s0.615,1.008,1.626,1.291c0.611,0.172,1.136-0.079,1.355-0.28     c0.324,0.162,0.64,0.338,0.942,0.533c-0.066-0.006-0.131-0.01-0.202-0.006c-1.047,0.076-1.85,0.94-1.85,0.94     s0.919,0.737,1.967,0.661c0.664-0.047,1.081-0.503,1.197-0.762c1.721,1.475,2.936,3.508,3.38,5.771     c-0.082-0.26-0.23-0.535-0.48-0.772c-0.912-0.868-2.328-0.886-2.328-0.886s0.087,1.413,1,2.282     c0.698,0.664,1.638,0.535,1.792,0.374c0.057-0.061,0.104-0.231,0.104-0.455c0.063,0.451,0.104,0.909,0.104,1.375     c0,1.996-0.567,3.855-1.553,5.424c0.152-0.413,0.22-1.082-0.144-1.739c-0.713-1.285-2.283-1.797-2.283-1.797     s-0.396,1.603,0.318,2.888c0.53,0.953,1.564,1.152,1.834,1.049c-1.644,2.354-4.264,3.97-7.336,4.247l-0.073,0.005     c-0.029,0.002-0.057,0.006-0.086,0.008c-0.029-0.002-0.057-0.006-0.086-0.008L31.84,53.37c-3.072-0.277-5.693-1.894-7.336-4.247     c0.27,0.104,1.305-0.096,1.834-1.049c0.713-1.285,0.318-2.888,0.318-2.888s-1.57,0.512-2.283,1.797     c-0.364,0.657-0.296,1.326-0.144,1.739c-0.986-1.567-1.553-3.428-1.553-5.424c0-0.466,0.042-0.926,0.105-1.379     c0,0.227,0.047,0.398,0.104,0.459c0.154,0.161,1.094,0.29,1.792-0.374c0.913-0.869,1-2.282,1-2.282s-1.416,0.018-2.328,0.886     c-0.251,0.239-0.399,0.514-0.481,0.775c0.444-2.266,1.659-4.299,3.381-5.774c0.117,0.259,0.533,0.715,1.197,0.762     c1.047,0.076,1.968-0.661,1.968-0.661s-0.804-0.864-1.851-0.94c-0.071-0.004-0.136,0-0.202,0.006     c0.303-0.195,0.618-0.371,0.942-0.533c0.22,0.201,0.744,0.452,1.355,0.28c1.011-0.283,1.626-1.291,1.626-1.291     s-1.05-0.538-2.06-0.254c-0.617,0.174-0.933,0.669-1.012,0.954c-0.243,0.119-0.479,0.248-0.711,0.386     c0.088-0.094,0.17-0.198,0.238-0.327c0.486-0.93,0.174-2.067,0.174-2.067s-1.111,0.394-1.598,1.324     c-0.372,0.712-0.053,1.435,0.112,1.521c0.066,0.035,0.235,0.027,0.435-0.036c-0.655,0.457-1.256,0.985-1.789,1.576     c0.158-0.29,0.271-0.672,0.211-1.118c-0.168-1.249-1.26-2.148-1.26-2.148s-0.817,1.156-0.649,2.404     c0.128,0.956,0.941,1.443,1.161,1.415c0.026-0.004,0.059-0.019,0.095-0.038c-1.243,1.565-2.043,3.482-2.232,5.535     c0-0.414-0.122-0.938-0.519-1.396c-0.963-1.11-2.605-1.287-2.605-1.287s-0.056,1.649,0.907,2.76     c0.736,0.85,1.842,0.806,2.039,0.634c0.067-0.057,0.133-0.229,0.163-0.457c-0.015,0.229-0.03,0.456-0.03,0.688     c0,2.054,0.58,3.969,1.593,5.583c-0.203-0.104-0.435-0.186-0.699-0.221c-1.457-0.189-2.801,0.769-2.801,0.769     s1.054,1.271,2.512,1.46c0.984,0.128,1.719-0.455,1.901-0.771c0.534,0.623,1.14,1.181,1.808,1.66     c-0.262-0.063-0.556-0.089-0.877-0.031c-1.447,0.261-2.438,1.581-2.438,1.581s1.39,0.892,2.836,0.631     c1.105-0.198,1.633-1.173,1.587-1.428c-0.004-0.021-0.021-0.049-0.036-0.075c0.964,0.526,2.024,0.906,3.154,1.108     c-0.833,0.218-1.533,0.611-2.084,1.182c-0.062,0.063-0.06,0.164,0.003,0.227c0.031,0.029,0.849,0.037,0.87-0.004     c0.457-0.872,1.814-1.171,2.315-1.253c0.501,0.082,1.859,0.381,2.315,1.253c0.021,0.041,0.839,0.033,0.87,0.004     c0.063-0.063,0.066-0.163,0.003-0.227c-0.551-0.57-1.251-0.964-2.083-1.182c1.129-0.202,2.189-0.582,3.153-1.108     c-0.014,0.026-0.032,0.055-0.036,0.075c-0.045,0.255,0.482,1.229,1.587,1.428c1.447,0.261,2.836-0.631,2.836-0.631     s-0.99-1.32-2.438-1.581c-0.321-0.058-0.615-0.032-0.876,0.031c0.667-0.479,1.274-1.037,1.808-1.66     c0.182,0.315,0.917,0.898,1.901,0.771c1.458-0.189,2.512-1.46,2.512-1.46s-1.344-0.958-2.801-0.769     c-0.265,0.035-0.497,0.116-0.699,0.221c1.012-1.614,1.593-3.529,1.593-5.583c0-0.232-0.015-0.462-0.03-0.69     c0.03,0.229,0.096,0.403,0.163,0.46c0.196,0.172,1.302,0.216,2.039-0.634c0.963-1.11,0.907-2.76,0.907-2.76     s-1.642,0.177-2.605,1.287C41.721,41.421,41.601,41.946,41.602,42.361z" fill="#37474F"/><path d="M42.309,44.797c-0.968,0.571-1.125,1.668-0.994,1.891c0.132,0.225,1.167,0.617,2.135,0.046     c1.266-0.748,1.737-2.329,1.737-2.329S43.575,44.052,42.309,44.797z" fill="#37474F"/><path d="M35.379,50.291c0.506,1.002,1.589,1.231,1.821,1.114c0.232-0.117,0.692-1.124,0.186-2.126     c-0.662-1.313-2.21-1.887-2.21-1.887S34.718,48.979,35.379,50.291z" fill="#37474F"/><path d="M40.764,37.494c-0.426,1.04,0.112,2.007,0.353,2.105c0.241,0.099,1.302-0.216,1.728-1.255     c0.556-1.36-0.026-2.906-0.026-2.906S41.32,36.133,40.764,37.494z" fill="#37474F"/><path d="M25.174,37.095c-0.89,0.37-1.151,1.281-1.066,1.487c0.085,0.205,0.918,0.661,1.807,0.29     c1.163-0.485,1.749-1.773,1.749-1.773S26.336,36.609,25.174,37.095z" fill="#37474F"/><path d="M23.272,44.044c-0.529,0.805-0.234,1.707-0.049,1.829c0.187,0.122,1.131,0.032,1.659-0.773     c0.691-1.054,0.455-2.448,0.455-2.448S23.963,42.989,23.272,44.044z" fill="#37474F"/><path d="M22.685,46.688c0.132-0.223-0.026-1.319-0.993-1.891c-1.267-0.745-2.879-0.393-2.879-0.393     s0.471,1.581,1.737,2.329C21.518,47.305,22.552,46.912,22.685,46.688z" fill="#37474F"/><path d="M26.8,51.405c0.231,0.117,1.314-0.112,1.82-1.114c0.662-1.313,0.203-2.898,0.203-2.898     s-1.548,0.574-2.21,1.887C26.108,50.281,26.568,51.288,26.8,51.405z" fill="#37474F"/><path d="M22.884,39.6c0.24-0.099,0.778-1.065,0.353-2.105c-0.556-1.361-2.055-2.056-2.055-2.056     s-0.582,1.546-0.026,2.906C21.582,39.384,22.644,39.698,22.884,39.6z" fill="#37474F"/></g><g><path d="M32,27.001c-8.823,0-16,7.178-16,16s7.177,16,16,16s16-7.178,16-16S40.823,27.001,32,27.001z M32,58.001     c-8.271,0-15-6.729-15-15s6.729-15,15-15s15,6.729,15,15S40.271,58.001,32,58.001z" fill="#37474F"/></g><path d="M58,15L52,5h-0.001H12.001H12L6,15h0l0,0.001h0.001L20.35,30.654c0.248-0.234,0.495-0.469,0.757-0.688    L7.242,14.828l4.927-8.164L30.01,26.128c0.419-0.049,0.846-0.073,1.274-0.091L21.167,15h21.665L32.716,26.037    c0.429,0.018,0.855,0.042,1.274,0.091L51.832,6.664l4.927,8.21L42.91,29.981c0.256,0.215,0.498,0.444,0.74,0.673L58,15L58,15    L58,15L58,15z M43.749,14H20.251l-7.333-8h38.165L43.749,14z" fill="#37474F"/></g></g></svg>