<svg width="512" height="512" xmlns="http://www.w3.org/2000/svg">

 <g>
  <title>background</title>
  <rect fill="#fcfcfc" id="canvas_background" height="514" width="514" y="-1" x="-1"/>
 </g>
 <g>
  <title>Layer 1</title>
  <path id="svg_1" fill="#37404D" d="m285.928009,113.067001c62.492004,0 113.326996,50.826996 113.326996,113.326996c0,0.344009 -0.040985,0.705002 -0.06601,1.048996c-0.048981,0.836014 -0.106995,1.672012 -0.122986,2.525009l-0.425995,17.132996l17.158997,0.065002c41.529999,0.115005 75.313019,34.00502 75.313019,75.535019c0,41.414978 -33.718018,75.304993 -75.157013,75.518005l-3.664001,0.015991l-307.314018,0c-46.243996,-0.049011 -83.871998,-37.693024 -83.871998,-83.929016c0,-35.825012 22.806,-67.713989 56.737003,-79.356003l9.444,-3.229004l1.663994,-9.837997c4.115005,-24.281998 24.969994,-41.906998 49.587997,-41.906998c7.846008,0 15.428009,1.820007 22.536011,5.393997l15.306,7.689011l7.386002,-15.444c18.764999,-39.21701 58.868988,-64.548004 102.162003,-64.548004m0,-16.790001c-51.778,0 -96.358002,30.315002 -117.302994,74.092003c-9.059006,-4.557999 -19.256012,-7.182007 -30.085999,-7.182007c-33.233009,0 -60.762009,24.184006 -66.140007,55.893005c-39.57901,13.576996 -68.08301,51.024002 -68.08301,95.227005c0,55.597015 45.063002,100.669006 100.643999,100.718018l311.084007,0l0,-0.016022c50.777008,-0.263 91.856018,-41.480988 91.856018,-92.307983c0,-50.908997 -41.177002,-92.177002 -92.053009,-92.324005c0.03299,-1.344009 0.196991,-2.639008 0.196991,-3.984009c0,-71.861008 -58.253998,-130.116005 -130.115997,-130.116005l0,0z"/>
 </g>
</svg>