<?xml version="1.0" ?><!DOCTYPE svg  PUBLIC '-//W3C//DTD SVG 1.1//EN'  'http://www.w3.org/Graphics/SVG/1.1/DTD/svg11.dtd'><svg enable-background="new 0 0 100 100" height="100px" id="Layer_1" version="1.1" viewBox="0 0 100 100" width="100px" xml:space="preserve" xmlns="http://www.w3.org/2000/svg" xmlns:xlink="http://www.w3.org/1999/xlink"><g><g><circle cx="50" cy="50" fill="#E5E5E5" r="42.105"/></g><g><path d="M72.145,60.849v8.344c0,1.386-1.117,2.504-2.504,2.504H41.27c-1.385,0-2.502-1.118-2.502-2.504v-8.344    H72.145z" fill="#185B37"/><path d="M72.143,39.152v-8.345c0-1.386-1.119-2.504-2.504-2.504H55.453v10.849H72.143z" fill="#33C481"/><path d="M38.768,60.849h-0.006v8.344c0,1.386,1.119,2.504,2.504,2.504h28.373c1.385,0,2.504-1.118,2.504-2.504    v-8.344H55.453H38.768z" fill="#185B37"/><rect fill="#21A365" height="10.848" width="0.002" x="72.143" y="39.152"/><rect fill="#21A365" height="10.848" width="16.689" x="55.453" y="39.152"/><rect fill="#107C41" height="10.849" width="0.002" x="72.143" y="50"/><rect fill="#107C41" height="10.849" width="16.689" x="55.453" y="50"/><path d="M38.768,50V39.152h16.686V28.304H41.266c-1.385,0-2.504,1.118-2.504,2.504v30.041h0.006V50z" fill="#21A365"/><rect fill="#107C41" height="10.848" width="16.686" x="38.768" y="39.152"/><rect fill="#185B37" height="10.849" width="16.686" x="38.768" y="50"/><g><path d="M53.568,60.849H38.768v2.431h12.369C52.475,63.279,53.568,62.185,53.568,60.849z" fill="#13492C"/><path d="M53.568,44.013c0-1.336-1.094-2.43-2.432-2.43H38.768V50h14.801V44.013z" fill="#0D6434"/><rect fill="#13492C" height="10.849" width="14.801" x="38.768" y="50"/></g><path d="M51.797,40.16v19.509c0,0.106-0.01,0.213-0.027,0.319c-0.16,0.825-0.877,1.454-1.746,1.454H29.629    c-0.986,0-1.773-0.798-1.773-1.773V40.16c0-0.976,0.787-1.773,1.773-1.773h20.395c0.842,0,1.551,0.594,1.729,1.384    C51.779,39.895,51.797,40.028,51.797,40.16z" fill="#17864C"/><path d="M45.355,43.27h-2.916c0,0-1.898,3.303-2.613,5.008c-0.715-1.705-2.615-5.008-2.615-5.008h-2.916    l3.963,6.646l-3.963,6.645h2.766l2.766-5.338l2.766,5.338h2.764l-3.961-6.645L45.355,43.27z" fill="#FFFFFF"/></g></g></svg>